
<svg width="829" height="837" viewBox="0 0 829 837" fill="none" xmlns="http://www.w3.org/2000/svg">
	<path d="M10.6 819.3V826.3H17.6H811.2H811.3H818.3V819.3V769.7V758.55L808.258 763.396C757.781 787.75 701.118 801.5 641.2 801.5C514.715 801.5 402.461 740.23 332.422 645.829L329.313 641.638L324.408 643.421L15.2085 755.821L10.6 757.497V762.4V819.3ZM255.687 473.204L260.71 471.207L260.047 465.842C258.08 449.906 257 433.693 257 417.3C257 205.166 428.966 33.2 641.1 33.2C701.026 33.2 757.684 46.8531 808.148 71.2997L818.2 76.1692V65V17.4V10.4H811.2H17.5H10.5V17.4V560.4V570.717L20.0869 566.904L255.687 473.204ZM7 829.7V7H821.9V74.1V176.7V657.9V760.5V829.7H7Z" fill="white" stroke="transparent" stroke-width="0"/>
	<path d="M641.099 119.2C679.974 119.2 717.02 126.595 750.963 140.084L643.543 370.82L536.66 138.03C569.155 125.85 604.308 119.2 641.099 119.2Z" fill="#F76113" stroke="white" stroke-width="0"/>
	<path d="M343 417.4C343 334.912 376.536 260.163 430.69 206.162L637.751 652.148L644.221 666.084L650.491 652.056L817.571 278.2L821.8 269.069V654.475C817.103 658.07 812.249 661.505 807.27 664.907C759.792 696.846 702.654 715.5 641.1 715.5C476.466 715.5 343 582.034 343 417.4Z" fill="#F76113" stroke="white" stroke-width="0"/>
</svg>
